<svg width="128" height="128" viewBox="0 0 128 128" fill="none" xmlns="http://www.w3.org/2000/svg">
<path d="M122.156 31.025C120.756 25.1 116.644 20.45 111.422 18.875C101.956 16 64 16 64 16C64 16 26.0444 16 16.5778 18.875C11.3555 20.45 7.24443 25.1 5.84443 31.025C3.3111 41.75 3.3111 64.1 3.3111 64.1C3.3111 64.1 3.3111 86.45 5.84443 97.175C7.24443 103.1 11.3555 107.55 16.5778 109.125C26.0444 112 64 112 64 112C64 112 101.956 112 111.422 109.125C116.644 107.55 120.756 103.075 122.156 97.175C124.689 86.45 124.689 64.1 124.689 64.1C124.689 64.1 124.689 41.75 122.156 31.025ZM51.6 84.4V43.8L83.3111 64.1L51.6 84.4Z" fill="#FF0000"/>
<rect x="13" y="39" width="106" height="54" fill="#FF0000"/>
<path d="M73.7095 40.6887L114.776 64.3982L73.7095 88.1078L73.7095 40.6887Z" fill="white"/>
<rect x="66.3844" y="32.3139" width="6" height="64" transform="rotate(15 66.3844 32.3139)" fill="black"/>
<rect width="12" height="52" transform="matrix(-1 0 0 1 30 38)" fill="white"/>
<rect width="12" height="52" transform="matrix(-1 0 0 1 50 38)" fill="white"/>
</svg>
