<svg xmlns="http://www.w3.org/2000/svg" width="128" height="128" fill="none"><path fill="red" d="M122.156 31.025c-1.4-5.925-5.512-10.575-10.734-12.15C101.956 16 64 16 64 16s-37.956 0-47.422 2.875C11.355 20.45 7.244 25.1 5.844 31.025 3.311 41.75 3.311 64.1 3.311 64.1s0 22.35 2.533 33.075c1.4 5.925 5.511 10.375 10.734 11.95C26.044 112 64 112 64 112s37.956 0 47.422-2.875c5.222-1.575 9.334-6.05 10.734-11.95 2.533-10.725 2.533-33.075 2.533-33.075s0-22.35-2.533-33.075ZM51.6 84.4V43.8l31.711 20.3L51.6 84.4Z"/><path fill="red" d="M13 39h106v54H13z"/><path fill="#fff" d="m73.71 40.689 41.066 23.71L73.71 88.107v-47.42Z"/><path fill="#000" d="m66.384 32.314 5.796 1.553-16.565 61.82-5.795-1.554z"/><path fill="#fff" d="M30 38H18v52h12zM50 38H38v52h12z"/></svg>